<svg xmlns="http://www.w3.org/2000/svg" xmlns:xlink="http://www.w3.org/1999/xlink" width="810" height="223.268"><path fill="#FFF" d="M481.969 99.856a371.81 371.81 0 00-2.589-3.24c-.493.473-1.241 1.537-2.234 3.24h4.823zm2.975-24.731c-.328.372-.591.845-.812 1.437h-11.934l.721-2.312 1.1.783h1.657c-.115-.432-.478-1.188-1.101-2.265a3.218 3.218 0 01-.406-2.069c.091-.535 1.417-1.942 4.014-4.213 2.324-1.977 3.753-2.964 4.296-2.964.07 0 .122.016.147.051.064.093-.765.919-2.479 2.492-1.717 1.572-2.492 2.691-2.338 3.38.261 1.071.719 2.182 1.42 3.322.977 1.567 1.975 2.356 2.991 2.356h2.724zm9.608-6.574c0 6.802-1.317 12.506-3.965 17.123-1.294 2.259-4.224 5.775-8.784 10.538l10.355 10.647-.512 1.034h-23.692c.653-1.522 2.528-3.705 5.635-6.553 2.694-2.473 4.048-4.116 4.048-4.908-.379-.419-1.681-2.063-3.891-4.906-7.44-9.556-11.168-17.223-11.168-22.975 0-3.91.949-7.915 2.878-12.023 1.593-3.32 3.609-6.276 6.066-8.863 2.208-2.33 3.87-3.496 4.979-3.496-.191.271-.898 1.124-2.098 2.54-5.081 6.028-7.618 12.749-7.618 20.2.377 2.744 1.091 5.57 2.157 8.486 2.507 6.955 6.285 13.426 11.372 19.409 7.173-7.178 10.758-15.233 10.758-24.164 0-3.901-.866-7.569-2.635-10.991a23.926 23.926 0 00-4.974-6.543c-.614-.557-1.568-1.381-2.832-2.477v-7.264c1.028 0 2.579.939 4.655 2.815 6.174 5.6 9.266 13.054 9.266 22.371zM332.07 107.893h-28.297c-.51 0-5.061 3.609-13.657 10.821-8.592 7.219-13.926 10.83-16.007 10.83-2.41 0-8.121-1.815-17.161-5.424-8.504-3.367-13.811-5.751-15.904-7.127a8.05 8.05 0 01-.571-.403c.077-.112.353-.077.808.076 3.213 1.272 8.025 3.156 14.45 5.631 8.206 3.154 14.004 4.736 17.406 4.736 2.668 0 5.947-1.497 9.842-4.495 3.065-2.348 6.043-5.208 8.937-8.576 2.621-3.046 3.936-4.908 3.936-5.591 0-1.417-1.064-3.195-3.166-5.3a1.064 1.064 0 01-.239-.644c0-.94 1.953-2.89 5.867-5.827 1.517 2.507 2.67 4.192 3.477 5.06 1.024 1.1 2.133 1.66 3.32 1.66h2.231c-1.325-1.753-3.198-4.453-5.625-8.087a1.118 1.118 0 01-.168-.62c0-.807 2.102-2.871 6.317-6.191 1.351 2.314 3.41 5.78 6.188 10.358 1.956 3.036 3.864 4.541 5.751 4.541h1.817c-2.614-4.021-6.037-9.439-10.28-16.239a.745.745 0 01-.078-.315c0-1.273 2.457-3.739 7.368-7.409a5.775 5.775 0 00-.077.928c0 .781.159 1.529.483 2.225l12.51 20.811h21.46v-33.48c0-.97-.393-1.889-1.18-2.749-.184-.213-.949-.904-2.294-2.064l9.75-9.111v51.978H332.07zm118.327-39.308l-4.735 4.823-4.903-4.823 4.903-5.062 4.735 5.062zm7.928 39.308H363.448c1.427-2.218 3.785-4.865 7.043-7.978 2.287 1.864 5.06 3.084 8.287 3.68 1.844.326 4.852.489 9.042.489 4.796 0 5.828.036 3.065.077.547 0 1.974-.282 4.293-.841-.508-2.272-1.363-4.22-2.547-5.873-1.836-2.543-4.157-3.807-6.96-3.807h-20.32c.313-.644 1.613-2.584 3.879-5.828 2.429-3.479 4.067-5.67 4.902-6.599 0 .051-.341 1.048-1.013 2.956-.379 1.141-.571 2.053-.571 2.748 0 1.737.827 2.795 2.471 3.176l2.668.308h13.531c2.447 0 4.251.216 5.378.656.586.236 1.725 1.02 3.406 2.353 1.271.987 3.27 4.291 6.03 9.911h39.548c0-1.057-.855-3.235-2.535-6.543-1.681-3.307-2.527-5.535-2.527-6.695 0-1.346 1.218-3.006 3.646-4.984a34.276 34.276 0 016.063-3.884c-.993 1.864-1.486 3.48-1.486 4.864 0 .48.069.928.235 1.331 1.437 3.403 4.547 10.229 9.349 20.483zm328.064-4.483a803.625 803.625 0 01-5.634-11.58c-1.939.86-2.914 2.021-2.914 3.48 0 1.944 1.136 3.816 3.41 5.623 2.022 1.589 3.729 2.416 5.138 2.477zm-185.445-7.048c0-.844-.282-1.54-.852-2.107-.564-.561-1.269-.853-2.104-.853-2.039 0-3.082.989-3.082 2.96 0 1.992 1.043 2.991 3.082 2.991.835 0 1.539-.294 2.104-.87.57-.576.852-1.281.852-2.121zm-3.809-27.765l-4.806 4.812-4.778-4.812 4.778-5.063 4.806 5.063zm16.927 39.296h-74.208c3.74-5.739 5.797-8.62 6.149-8.62-1.161 0-.59.68 1.736 2.029 2.323 1.34 3.838 2.02 4.539 2.02h43.606a82.416 82.416 0 01-3.799-1.573c-1.754-.791-3.139-1.747-4.139-2.88-1.314-1.538-1.975-3.446-1.975-5.743 0-1.023 1.049-2.792 3.153-5.3 3.021-3.622 7.552-7.773 13.561-12.431-.057.355-.302 1.013-.772 1.976-.344.783-.52 1.496-.52 2.115l12.669 28.407zm181.954-2.471c-1.453 2.079-2.346 3.299-2.674 3.65-1.189 1.261-2.586 1.898-4.204 1.898-2.494 0-5.249-.712-8.302-2.141-.567-.271-2.667-1.468-6.314-3.599-.642 1.779-1.521 2.663-2.619 2.663H698.544c-2.939 0-4.848-.445-5.705-1.331.319-.328 1.225-1.066 2.705-2.225.243-.252.614-.576 1.089-1.016.491-.437.852-.747 1.095-.972.646.655 1.921.972 3.809.972h19.707c-.427-2.053-1.513-4.171-3.232-6.352-2.295-2.949-4.864-4.409-7.691-4.409-1.681 0-7.007 3.473-15.992 10.443-2.722 2.097-4.333 3.284-4.808 3.558-1.566.886-3.309 1.331-5.229 1.331h-52.178c-1.477 2.322-4.896 5.417-10.239 9.276-3.139 2.26-7.901 5.715-14.291 10.357 0-.695.398-1.443 1.172-2.227 2.111-1.592 5.248-3.999 9.433-7.204 4.694-3.671 7.053-6.55 7.053-8.62 0-1.265-2.492-6.223-7.456-14.854-.264-.455-.404-.919-.404-1.383 0-.997.794-2.173 2.384-3.517.978-.78 3.06-2.235 6.232-4.372-.61 2.268-.922 3.348-.922 3.236 0 .432.174 1.061.528 1.903.907 2.319 3.5 6.601 7.765 12.832h54.088c-1.847-2.968-2.761-4.9-2.761-5.784 0-1.591 2.342-4.103 7.053-7.532-.354 1.135-.421 2.192-.212 3.196.103.432.254.845.447 1.256.865 1.755 1.753 3.087 2.679 4.008 3.934-3.509 9.449-7.195 16.543-11.055 1.833-.997 3.664-1.495 5.504-1.495 6.19 0 11.431 5.803 15.755 17.405h40.598c-1.935-2.071-2.912-3.928-2.912-5.543 0-2.322 2.409-5.588 7.211-9.799 3.721-3.232 7.198-5.78 10.434-7.609-.591 2.477-.718 4.144-.404 4.98 1.777 4.567 4.666 11.253 8.624 20.075zm-275.195 2.709c0 .696-1.067 1.624-3.19 2.744-2.438 1.279-4.874 1.908-7.326 1.908-3.136 0-5.539-1.161-7.213-3.517-1.435-2.079-2.143-4.745-2.143-8.01V64.134c0-2.296-.179-3.955-.566-4.979-.59-1.539-1.813-2.751-3.683-3.644l10.644-8.863v54.607c0 2.635.185 4.495.565 5.544.837 2.259 2.693 3.395 5.546 3.395 1.106 0 2.57-.379 4.375-1.111 1.802-.737 2.755-1.116 2.83-1.116.108.035.161.087.161.164zM319.469 163.31c.305 0 .36-.182.305-.361l-5.47-14.941c-.058-.242-.116-.542-.301-.542-.187 0-.305.3-.367.542l-5.583 14.879c-.062.242 0 .424.241.424h11.175zm79.974.119c0 5.47.065 9.416.12 10.443.061 1.277.186 3.101.613 3.644.667.977 2.791 2.07 6.98 2.07 4.849 0 8.442-.853 11.659-3.525 3.461-2.854 4.554-7.464 4.554-12.81 0-6.559-2.613-10.81-4.982-12.874-4.916-4.369-10.748-4.913-14.933-4.913-1.093 0-2.857.116-3.278.357-.488.187-.667.428-.667 1.039-.065 1.756-.065 6.008-.065 10.074v6.495zm-7.167-5.702c0-7.833 0-9.288-.058-10.932-.122-1.758-.608-2.306-2.306-2.787-.427-.125-1.339-.186-2.128-.186-.543 0-.906-.183-.906-.548 0-.356.424-.482 1.212-.482 2.794 0 6.191.126 7.715.126 1.635 0 5.462-.126 8.677-.126 6.683 0 15.669 0 21.495 5.888 2.67 2.67 5.04 6.978 5.04 13.115 0 6.494-2.793 11.411-5.833 14.389-2.424 2.424-8.072 6.069-17.906 6.069-1.944 0-4.254-.187-6.378-.303-2.125-.183-4.07-.305-5.403-.305-.608 0-1.758.061-3.029.061-1.283.062-2.614.118-3.708.118-.669 0-1.037-.179-1.037-.537 0-.248.18-.552.85-.552.793 0 1.395-.062 1.885-.181 1.096-.242 1.397-1.214 1.581-2.733.237-2.188.237-6.253.237-10.995v-9.099zm61.817 8.196c.241 0 .306-.122.241-.308l-5.035-12.929c-.059-.187-.127-.485-.239-.485-.189 0-.245.299-.31.485l-5.164 12.872c-.123.242 0 .364.184.364h10.323zm29.454.906c0 6.62 0 9.904 1.153 10.87.914.79 2.969 1.093 7.103 1.093 2.856 0 4.924-.061 6.255-1.457.669-.669 1.215-2.125 1.331-3.098.062-.483.19-.788.612-.788.363 0 .486.547.486 1.159 0 .602-.367 4.431-.792 5.943-.361 1.161-.603 1.395-3.397 1.395-3.824 0-6.923-.055-9.592-.181-2.677-.053-4.919-.116-7.107-.116-.61 0-1.757.063-3.035.063-1.274.053-2.607.116-3.699.116-.237 0-.437-.022-.596-.068-.347.048-.87.068-1.656.068-1.884 0-5.771 0-10.265-.122-.97-.058-1.579-.058-1.579-.422 0-.307.121-.485.667-.549.366-.062.732-.543.486-1.152l-4.131-10.443c-.124-.302-.301-.364-.543-.364h-12.564c-.312 0-.372.063-.487.364l-2.854 6.982c-.551 1.274-.792 2.552-.792 3.157 0 .913.482 1.456 2.127 1.456h.791c.665 0 .787.242.787.549 0 .422-.305.544-.853.544-1.754 0-4.253-.18-5.947-.18-.543 0-3.404.18-6.196.18-.664 0-.974-.122-.974-.544 0-.307.187-.549.616-.549.476 0 1.092-.062 1.573-.062 2.429-.359 3.342-1.94 4.438-4.552l13.957-32.237c.612-1.463 1.034-2.063 1.585-2.063.78 0 1.027.482 1.574 1.637 1.271 2.857 10.196 23.742 13.603 31.572 2.063 4.673 3.579 5.341 4.552 5.526.788.117 1.397.179 2.01.179.083 0 .16.006.229.017.076-.011.161-.017.255-.017.794 0 1.398-.059 1.884-.185 1.092-.242 1.398-1.207 1.582-2.733.24-2.188.24-6.246.24-10.989v-9.102c0-7.835 0-9.292-.061-10.933-.123-1.754-.608-2.305-2.307-2.791-.427-.118-1.098-.181-1.765-.181-.602 0-.907-.187-.907-.543 0-.366.365-.485 1.153-.485 2.492 0 5.885.119 7.347.119 1.27 0 5.646-.119 7.71-.119.79 0 1.153.119 1.153.485 0 .356-.306.543-.975.543-.604 0-1.454.063-2.059.181-1.463.244-1.885.967-2.007 2.791-.12 1.641-.12 3.098-.12 10.933v9.103zm20.465-9.106c0-7.831.064-9.28-.064-10.928-.116-1.825-.6-2.31-2.303-2.787-.422-.123-1.332-.188-2.064-.188-.609 0-.91-.184-.91-.54 0-.366.364-.485 1.157-.485 2.851 0 6.429.119 8.012.119 1.337 0 4.916-.119 6.856-.119.792 0 1.154.119 1.154.485 0 .356-.298.54-.848.54-.603 0-.913.065-1.577.188-1.396.241-1.824.962-1.947 2.787-.118 1.647-.118 3.097-.118 10.928v7.23c0 7.526 1.451 10.441 4.07 12.504 2.366 1.884 4.912 2.067 6.742 2.067 2.301 0 5.039-.675 7.156-2.73 2.977-2.796 3.1-7.289 3.1-12.575v-6.496c0-7.831-.058-9.28-.123-10.928-.119-1.755-.54-2.31-2.245-2.787-.42-.123-1.332-.188-1.948-.188-.599 0-.9-.184-.9-.54 0-.366.356-.485 1.084-.485 2.741 0 6.315.119 6.376.119.615 0 4.189-.119 6.255-.119.729 0 1.097.119 1.097.485 0 .356-.304.54-.912.54-.607 0-.912.065-1.581.188-1.453.241-1.818.962-1.936 2.787-.066 1.647-.124 3.097-.124 10.928v5.524c0 5.771-.608 11.841-5.1 15.544-3.765 3.159-7.839 3.705-11.298 3.705-2.794 0-8.317-.119-12.203-3.527-2.732-2.366-4.857-6.186-4.857-13.653v-7.593zm43.178 23.443c-.851-.366-1.034-.605-1.034-1.763 0-2.8.24-6.017.299-6.86 0-.791.253-1.34.671-1.34.485 0 .547.485.547.85 0 .67.181 1.761.488 2.673 1.156 3.826 5.161 5.099 8.502 5.099 4.613 0 7.4-2.91 7.4-6.554 0-2.253-.542-4.494-5.272-7.284l-3.097-1.822c-6.318-3.707-8.388-7.169-8.388-11.72 0-6.31 6.081-10.383 13.482-10.383 3.457 0 6.194.485 7.592.85.482.126.725.307.725.664 0 .675-.181 2.125-.181 6.196 0 1.092-.242 1.64-.67 1.64-.356 0-.543-.306-.543-.903 0-.492-.248-2.068-1.401-3.41-.784-.963-2.485-2.424-5.945-2.424-3.83 0-7.288 2-7.288 5.52 0 2.308.851 4.135 5.648 6.802l2.181 1.214c7.045 3.886 9.234 7.838 9.234 12.513 0 3.819-1.458 6.914-5.345 9.65-2.547 1.821-6.07 2.125-8.924 2.125-3.097-.002-6.377-.306-8.681-1.333zm58.311-20.775c-1.274-.909-2.67-1.339-5.035-1.463-1.093-.06-1.705-.06-2.607-.06-.246 0-.372.123-.372.43v14.386c0 4.012.181 5.04 2.125 5.822 1.646.681 3.036.736 4.434.736 2.736 0 7.349-1.455 7.349-7.772-.001-3.761-1.278-8.862-5.894-12.079zm-8.015-4.858c0 .49.181.606.429.668.542.122 1.458.18 2.849.18 2.009 0 3.34-.241 4.381-1.153 1.575-1.273 2.481-3.455 2.481-6.441 0-4.062-2.367-9.401-7.586-9.401-.851 0-1.402 0-1.999.121-.429.124-.555.364-.555 1.028v14.998zm-7.287-1.035c0-9.222 0-10.928-.12-12.867-.122-2.063-.606-3.037-2.609-3.465-.483-.123-1.517-.179-2.366-.179-.67 0-1.037-.122-1.037-.545 0-.426.432-.551 1.341-.551 3.217 0 7.045.184 8.26.184 2.971 0 5.342-.184 7.403-.184 10.987 0 12.934 5.894 12.934 9.11 0 4.974-2.853 7.952-6.192 10.621 4.978 1.706 11.052 6.012 11.052 13.114 0 6.497-5.045 13.239-16.216 13.239-.728 0-2.484-.123-4.249-.185a78.8 78.8 0 00-4.552-.181c-.67 0-2.006 0-3.461.059-1.404 0-2.978.122-4.191.122-.787 0-1.209-.181-1.209-.599 0-.314.239-.494.968-.494.91 0 1.639-.12 2.186-.241 1.214-.243 1.521-1.58 1.76-3.341.301-2.546.301-7.345.301-12.929v-10.688zm51.253 12.392c.241 0 .304-.128.241-.311l-5.042-12.928c-.052-.187-.115-.485-.235-.485-.189 0-.247.299-.307.485l-5.16 12.868c-.129.242 0 .37.181.37h10.322zm25.625 8.862c.116 4.004.794 5.223 1.819 5.586.915.302 1.949.364 2.799.364.607 0 .904.242.904.541 0 .426-.486.552-1.211.552-3.461 0-5.949-.181-6.923-.181-.489 0-3.036.181-5.764.181l-.306-.005-.43.002c-1.882 0-5.768 0-10.265-.119-.972-.063-1.579-.063-1.579-.425 0-.308.125-.487.67-.546.363-.063.732-.549.486-1.154l-4.126-10.441c-.121-.307-.306-.37-.551-.37h-12.56c-.311 0-.372.063-.486.37l-2.853 6.976c-.552 1.28-.794 2.553-.794 3.16 0 .911.479 1.46 2.125 1.46h.793c.664 0 .786.238.786.546 0 .425-.303.544-.853.544-1.756 0-4.247-.182-5.946-.182-.542 0-3.402.182-6.197.182-.663 0-.969-.119-.969-.544 0-.308.184-.546.61-.546.476 0 1.094-.063 1.579-.063 2.426-.363 3.343-1.945 4.435-4.558l13.956-32.232c.613-1.46 1.034-2.065 1.586-2.065.785 0 1.027.483 1.573 1.638 1.272 2.855 10.194 23.742 13.604 31.568 2.065 4.674 3.576 5.343 4.552 5.529.556.084 1.019.14 1.456.166.595-.028 1.243-.098 1.768-.228 1.396-.362 1.575-1.765 1.638-6.259l.49-30.598c0-1.033.359-1.761.902-1.761.67 0 1.402.79 2.305 1.701.671.668 8.688 8.859 16.457 16.454 3.643 3.581 10.749 10.87 11.541 11.596h.241l-.543-22.949c-.065-3.158-.554-4.066-1.826-4.546-.794-.315-2.062-.315-2.795-.315-.663 0-.847-.239-.847-.544 0-.427.547-.48 1.34-.48 2.795 0 5.646.119 6.797.119.608 0 2.61-.119 5.219-.119.735 0 1.215.054 1.215.48 0 .305-.304.544-.909.544-.548 0-.975 0-1.639.185-1.461.43-1.884 1.337-1.947 4.249l-.605 32.542c0 1.15-.421 1.644-.851 1.644-.912 0-1.633-.544-2.179-1.093-3.343-3.097-10.024-9.477-15.614-14.875-5.83-5.587-11.473-11.843-12.499-12.754h-.181l.602 21.073zm52.343-14.755h.248c1.819-1.944 9.588-9.594 11.169-11.354 1.521-1.698 2.671-2.914 2.671-3.823 0-.547-.239-.907-.727-1.038-.488-.117-.731-.239-.731-.537 0-.368.308-.487.853-.487 1.158 0 4.061.119 5.522.119 1.642 0 4.616-.119 6.251-.119.556 0 .912.119.912.487 0 .357-.299.537-.78.537-.795 0-2.124.247-3.101.614-1.703.609-3.402 1.701-5.647 3.819-1.703 1.584-9.653 9.108-11.298 10.992 1.887 2.431 12.389 13.355 14.46 15.297 2.363 2.126 4.431 4.371 7.278 5.528 1.576.67 2.674.67 3.278.67.431 0 .729.242.729.541 0 .371-.299.552-1.27.552h-4.678c-1.583 0-2.548 0-3.704-.126-2.854-.238-4.613-1.331-6.922-3.336-2.306-2.009-12.57-13.906-13.72-15.482l-.547-.729h-.248v4.672c0 4.741 0 8.802.125 11.056.123 1.456.609 2.425 1.942 2.665.729.125 1.94.188 2.611.188.422 0 .726.299.726.541 0 .371-.421.552-1.036.552-2.964 0-6.797-.181-8.13-.181-1.213 0-4.613.181-6.74.181-.669 0-1.031-.181-1.031-.552 0-.242.181-.541.855-.541.782 0 1.393-.063 1.879-.188 1.088-.24 1.399-1.209 1.58-2.732.241-2.187.241-6.247.241-10.988v-9.105c0-7.833 0-9.289-.065-10.931-.115-1.753-.599-2.308-2.301-2.792-.423-.116-1.334-.185-2.129-.185-.547 0-.912-.18-.912-.537 0-.368.422-.487 1.214-.487 2.796 0 6.196.119 7.471.119 1.271 0 5.104-.119 6.857-.119.793 0 1.157.119 1.157.487 0 .357-.307.537-.729.537-.55 0-.854.068-1.519.185-1.461.244-1.881.97-2.004 2.792-.063 1.642-.063 3.098-.063 10.931v2.307zm-412.342 5.349c-.299 0-.421.126-.546.482l-3.276 8.317c-.609 1.515-.911 2.981-.911 3.707 0 1.093.555 1.883 2.433 1.883h.909c.729 0 .91.12.91.491 0 .479-.363.602-1.032.602-1.943 0-4.55-.18-6.434-.18-.67 0-4.01.18-7.166.18-.79 0-1.151-.123-1.151-.602 0-.371.239-.491.722-.491.552 0 1.394-.059 1.885-.122 2.788-.361 3.946-2.425 5.165-5.468l15.232-37.638c.731-1.76 1.092-2.434 1.703-2.434.55 0 .916.55 1.514 1.942 1.463 3.344 11.179 27.627 15.062 36.859 2.304 5.465 4.071 6.316 5.344 6.618.561.112 1.126.179 1.646.212a8.851 8.851 0 001.515-.212c1.4-.364 1.576-1.764 1.64-6.258l.487-30.597c0-1.033.363-1.762.911-1.762.666 0 1.393.787 2.305 1.699.662.67 8.687 8.864 16.458 16.453 3.637 3.582 10.746 10.871 11.535 11.596h.242l-.548-22.948c-.062-3.156-.545-4.066-1.82-4.548-.79-.311-2.06-.311-2.792-.311-.667 0-.851-.242-.851-.548 0-.427.546-.478 1.337-.478 2.794 0 5.652.119 6.799.119.605 0 2.609-.119 5.217-.119.734 0 1.216.051 1.216.478 0 .306-.306.548-.905.548-.553 0-.975 0-1.646.184-1.454.429-1.883 1.341-1.94 4.245l-.606 32.545c0 1.152-.428 1.641-.85 1.641-.914 0-1.634-.543-2.186-1.089-3.34-3.101-10.018-9.475-15.606-14.873-5.832-5.591-11.476-11.847-12.505-12.754h-.182l.608 21.07c.116 4.005.786 5.226 1.813 5.583.915.306 1.949.364 2.799.364.606 0 .909.242.909.549 0 .421-.483.547-1.21.547-3.46 0-5.957-.183-6.925-.183-.487 0-3.033.183-5.765.183l-.263-.003-.032-.001-.256.001c-2.191 0-6.62 0-11.479-.123-1.087-.057-1.823-.057-1.823-.479 0-.371.248-.491.85-.55.427-.129.847-.666.552-1.397l-4.866-12.509c-.117-.299-.295-.425-.604-.425h-13.542z"/><defs><path id="a" d="M179.005 76.744v-61.15l14.963 14.963v61.15l-14.963-14.963zM38.958 155.202V55.873l14.589-14.055v105.32l55.662 55.659 11.028-10.974-66.608-66.603 12.973-12.985V30.556l14.964-14.963v85.572h17.256L74.776 125.21l55.476 55.477 55.445-55.432-23.807-23.805 10.584-10.585 34.377 34.381-66.811 66.808 11.209 10.718 55.768-55.747V41.818l14.591 14.025-.003 99.223-69.614 67.866-21.733-21.08-21.252 21.08-70.048-67.73z"/></defs><clipPath id="b"><use xlink:href="#a" overflow="visible"/></clipPath><linearGradient id="c" gradientUnits="userSpaceOnUse" x1="130.283" y1="222.408" x2="130.283" y2="52.088"><stop offset="0" stop-color="#8c7032"/><stop offset=".158" stop-color="#917536"/><stop offset=".389" stop-color="#a18544"/><stop offset=".666" stop-color="#bea460"/><stop offset=".976" stop-color="#eed78c"/><stop offset="1" stop-color="#f4dd91"/></linearGradient><path clip-path="url(#b)" fill="url(#c)" d="M38.958 15.593h182.651v207.339H38.958z"/><path fill="#FFF" d="M116.14 62.216l14.119 14.119 14.081-14.091-14.094-14.147z"/><path fill="#FFF" d="M116.144 126.186l14.119 14.119 14.08-14.091-14.094-14.147-14.105 14.119zM95.157 77.119V15.593l14.052 14.963v39.521l21.081 21.081 21.083-21.09V30.556l14.052-14.963v61.373l-24.662 24.653 24.662 24.659-35.135 35.129-35.124-35.129 24.582-24.579-24.591-24.58z"/><path fill="#FFF" d="M116.234 34.794l7.031 7.024 7.025-7.024 7.026 7.024 6.948-6.961-6.948-7.09 14.052-14.052L137.316-.337l-7.026 7.024 7.026 7.028-7.026 7.024-7.025-7.024 7.025-7.028-7.025-7.024-14.057 14.052 14.057 14.052z"/></svg>